<svg xmlns="http://www.w3.org/2000/svg" viewBox="0 0 351.24 76.45"><defs><style>.cls-1{fill:#333;}.cls-2{fill:#004c9f;stroke:#fff;stroke-miterlimit:10;stroke-width:2px;}.cls-3{fill:#ff3c2a;}</style></defs><g id="Layer_2" data-name="Layer 2"><g id="Layer_1-2" data-name="Layer 1"><path class="cls-1" d="M51.68,67.64q-5.43,1.06-10.84,2.22c-1.29-4.29-2.16-7.27-2.58-8.93l-.69-2.7Q35,64.6,32.54,71c-3,.61-4.68,1-5.12,1-3.29-4-5.8-7.17-7.49-9.38q.57,5.63,1.15,11.25-1.74.44-5.06,1.19T9.36,76.45c-.16-1-.32-2-.47-2.94Q8.49,70.63,5,51.59l.09,0c5.28-1.26,9.76-2.32,13.42-3.24.31.39.62.79.94,1.18q4,4.44,7.92,8.93,2.28-6.54,4.69-13.06c4.41-.89,8.84-1.75,13.26-2.56q.46,1.82,3.85,15,1,3.87,2,7.75C51.35,66.23,51.51,66.93,51.68,67.64Z"/><path class="cls-1" d="M85.56,62.65q-5.59.72-11.2,1.54Q64.3,65.57,54.27,67.25q-.37-3.07-.76-6.15c-1.52-12.33-2.28-18.65-2.34-19,1.44-.3,2.39-.49,2.84-.57Q63.19,40,72.4,38.7l9.92-1.42q0,3.33.11,6.67c-2.88.64-8.67,1.52-17.34,2.86,0,.28,0,.75.1,1.42s.11,1.17.14,1.51c3.43-.59,5.83-1,7.2-1.17l4-.45a24.27,24.27,0,0,1,.12,2.68,20.44,20.44,0,0,1-.12,3c-.18.07-1.66.3-4.43.7L66,55.4l.33,3.42Q75.62,57.49,85,56.38q.42,3.3.51,4.71C85.52,62,85.55,62.55,85.56,62.65Z"/><path class="cls-1" d="M107.27,59.94q-6,.77-12,1.63-.51-6-1-12c-.24-2.9-.4-5.13-.5-6.7q-4.94.57-9.86,1.2c0-.49-.09-1.54-.13-3.16s-.06-2.83,0-3.66c11.25-1.57,19.1-2.41,23.5-2.83s7.42-.66,9.05-.76a41.73,41.73,0,0,1-.71,7c-3.15.27-6.3.55-9.44.86.09,1.27.17,2.53.26,3.79.46,8.52.73,13.07.79,13.68A6.91,6.91,0,0,0,107.27,59.94Z"/><path class="cls-1" d="M128.49,55.18c-.37,1.13-.73,2.26-1.1,3.39a12,12,0,0,1-1.77.25c-.59,0-3.62.13-9.08.34,1.12-2.93,4.14-11.61,9.55-26l5.14-.55c2.67-.28,5-.46,7-.57a15.28,15.28,0,0,1,4.1.14c.06.24,3.7,7.23,10.38,21.13l1.62,3.4c-7.5.71-11.31,1.16-11.46,1.16h-2.3A16.67,16.67,0,0,1,139,54.67C138.24,54.63,134.73,54.75,128.49,55.18Zm7.93-7c-1.54-4-2.58-6.8-3.08-8.29q-.83,3.15-1.66,5.7c-.55,1.71-.86,2.68-.94,2.94C132.63,48.44,134.53,48.33,136.42,48.22Z"/><path class="cls-1" d="M179.79,31.19l2.06,0c3.7-.08,7.41-.13,11.11-.15q-.45,6.47-.89,12.94-.31,6.28-.61,12.56-6.36,0-12.72.11,0-3.07.25-7.78-4.77,0-9.56.05l-.36,7.57q-6.12.24-12.22.59c-.06-2-.08-4.47-.06-7.36l.09-9.92c0-.37,0-1.75.11-4.15s.12-3.82.12-4.27c1.9-.16,6.1-.33,12.59-.41h.35c-.2,3-.39,6-.59,9q4.89-.06,9.76-.06Z"/><path class="cls-1" d="M206.57,54l-1.45,3.25a13.5,13.5,0,0,1-1.79.06c-.59,0-3.61-.26-9.06-.64,1.43-2.79,5.35-11.1,12.28-24.78h5.16q4,0,7,.18a15.19,15.19,0,0,1,4.07.58c0,.24,2.91,7.59,8.06,22.12.42,1.19.83,2.37,1.24,3.55-7.53-.09-11.37-.06-11.51-.07L218.26,58a16.58,16.58,0,0,1-1.18-3.39C216.32,54.49,212.82,54.24,206.57,54Zm8.63-6.08c-1.1-4.17-1.83-7-2.17-8.57-.77,2-1.53,3.86-2.26,5.5l-1.26,2.81Z"/><path class="cls-1" d="M275.79,63q-5.49-.63-11-1.19.12-6.72.28-9.29c.06-.93.11-1.86.17-2.78q-4.39,5.28-8.66,10.6c-3-.32-4.74-.5-5.17-.57-1.89-4.86-3.32-8.6-4.25-11.22q-1.17,5.52-2.33,11.06c-1.2-.07-2.91-.21-5.16-.4s-4.48-.44-6.73-.73c.15-1,.31-2,.46-2.95q.5-2.87,3-22.05h.09c5.38.42,9.94.77,13.7,1l.52,1.41q2.44,5.45,4.79,10.92,4.17-5.53,8.44-11,6.69.75,13.37,1.62c-.08,1.24-.37,6.38-.9,15.41l-.48,8C275.9,61.56,275.85,62.28,275.79,63Z"/><path class="cls-1" d="M289.11,61.91c-.61,1-1.22,2-1.82,3.06a15.24,15.24,0,0,1-1.8-.14c-.58-.09-3.56-.68-8.94-1.67,1.74-2.61,6.59-10.42,15-23.23.77.1,2.48.29,5.15.6s5,.64,6.93,1a15.51,15.51,0,0,1,4,1c0,.24,2,7.87,5.52,22.9l.84,3.66c-7.51-1-11.33-1.35-11.48-1.39s-.89-.19-2.25-.49a16.82,16.82,0,0,1-.79-3.51C298.76,63.51,295.3,62.86,289.11,61.91Zm9.28-5c-.62-4.28-1-7.2-1.19-8.77q-1.5,2.89-2.88,5.2L292.75,56Q295.57,56.39,298.39,56.86Z"/><path class="cls-1" d="M340.92,74.52a30.2,30.2,0,0,1-5-.19c-1.75-.2-3.72-.54-5.94-1a53.77,53.77,0,0,1-7.16-2.11A50,50,0,0,1,315.73,68c.08-.18,1.06-2.23,3-6.14,0-.08.07-.11.16-.09q3,1.4,4.65,2.1a49.17,49.17,0,0,0,9.39,3c1.86.4,2.86.3,3-.33a.71.71,0,0,0-.15-.68,2.73,2.73,0,0,0-.93-.49c-.45-.18-1.18-.45-2.2-.83l-2.31-.88-2.25-.89q-1.46-.57-2.19-.93l-1.91-1a11.2,11.2,0,0,1-1.77-1.06c-.4-.32-.87-.7-1.39-1.14a4.61,4.61,0,0,1-1.15-1.3,11.22,11.22,0,0,1-.72-1.43,5.41,5.41,0,0,1-.26-3.25,6.92,6.92,0,0,1,5.88-5.83c3.31-.69,8-.42,14,.89A39.36,39.36,0,0,1,346,50.15,25.79,25.79,0,0,1,351.24,53c-1.25,2.26-2.29,4.07-3.15,5.43a55.17,55.17,0,0,0-5.87-2.53,50.21,50.21,0,0,0-7-2.13c-2.08-.45-3.19-.35-3.32.3-.08.36.13.69.62,1a33.29,33.29,0,0,0,3.64,1.56c1.93.75,3.23,1.26,3.89,1.53,4.93,2,7.91,4,9,6a6.07,6.07,0,0,1,.65,4.31A6.95,6.95,0,0,1,345,73.78,14,14,0,0,1,340.92,74.52Z"/><path class="cls-2" d="M47.84,65.05c-3.62.72-7.24,1.45-10.86,2.22C35.69,63,34.83,60,34.42,58.33l-.69-2.69Q31.14,62,28.67,68.38c-3,.61-4.69,1-5.12,1-3.29-4-5.8-7.17-7.49-9.39q.56,5.63,1.13,11.25c-1.16.3-2.85.69-5.06,1.2s-4.44,1-6.68,1.36c-.16-1-.31-2-.46-3C4.73,69,3.43,61.65,1.15,49l.09,0c5.29-1.25,9.77-2.31,13.44-3.23.31.4.62.79.94,1.18q4,4.45,7.91,9,2.31-6.54,4.72-13.07,6.63-1.32,13.28-2.54c.3,1.21,1.59,6.2,3.83,15,.67,2.59,1.32,5.17,2,7.76C47.51,63.65,47.67,64.35,47.84,65.05Z"/><path class="cls-2" d="M81.77,60.09q-5.61.72-11.22,1.53Q60.49,63,50.44,64.67q-.37-3.08-.76-6.15-2.25-18.5-2.31-19c1.44-.31,2.39-.49,2.83-.57q9.19-1.53,18.42-2.85c4.09-.58,7.4-1,9.93-1.41,0,2.22.06,4.45.1,6.67C75.77,42,70,42.91,61.29,44.23c0,.29,0,.76.1,1.43s.11,1.17.13,1.51c3.44-.59,5.85-1,7.22-1.16l4-.46a24.41,24.41,0,0,1,.12,2.68,22.14,22.14,0,0,1-.12,3c-.18.07-1.66.3-4.43.7-2,.29-4.08.6-6.12.91l.33,3.42q9.33-1.34,18.68-2.42c.28,2.19.45,3.76.5,4.71S81.76,60,81.77,60.09Z"/><path class="cls-2" d="M103.51,57.4q-6,.76-12.05,1.62-.49-6-1-12-.34-4.35-.49-6.7c-3.29.37-6.59.77-9.88,1.19Q80,40.78,80,38.37c0-1.62-.06-2.84,0-3.67,11.26-1.56,19.11-2.39,23.52-2.82s7.43-.65,9.06-.75a40.48,40.48,0,0,1-.72,7c-3.15.27-6.3.55-9.45.86.09,1.26.18,2.53.26,3.79q.69,12.77.78,13.67C103.46,57.08,103.5,57.39,103.51,57.4Z"/><path class="cls-2" d="M124.77,52.65,123.66,56a15.55,15.55,0,0,1-1.78.25c-.59,0-3.62.12-9.09.33,1.13-2.93,4.16-11.61,9.59-26,.77-.07,2.48-.26,5.14-.54s5-.47,7-.57a15.34,15.34,0,0,1,4.11.14c.06.24,3.71,7.24,10.39,21.14.54,1.13,1.08,2.26,1.61,3.39-7.5.71-11.32,1.16-11.47,1.16h-2.3a16.67,16.67,0,0,1-1.54-3.25C134.53,52.1,131,52.22,124.77,52.65Zm7.94-7c-1.54-4-2.58-6.8-3.08-8.29-.55,2.1-1.11,4-1.66,5.7s-.87,2.68-1,2.93C128.91,45.91,130.81,45.79,132.71,45.69Z"/><path class="cls-2" d="M176.14,28.67l2.05,0q5.56-.12,11.13-.15l-.9,12.94-.6,12.56q-6.37,0-12.74.11,0-3.08.25-7.79-4.79,0-9.57.06c-.12,2.52-.25,5-.37,7.56q-6.12.26-12.23.6c-.06-2-.08-4.47-.06-7.37l.09-9.92c0-.36,0-1.75.12-4.14s.11-3.83.11-4.27c1.91-.16,6.11-.33,12.61-.41h.35c-.2,3-.39,6-.59,9,3.26,0,6.51-.06,9.77-.06Q175.85,33,176.14,28.67Z"/><path class="cls-2" d="M203,51.47c-.49,1.09-1,2.17-1.45,3.26a13.65,13.65,0,0,1-1.8.06c-.59,0-3.61-.26-9.07-.64,1.43-2.79,5.36-11.1,12.29-24.79h5.17q4,0,7,.17a16.07,16.07,0,0,1,4.07.58c0,.24,2.91,7.59,8.08,22.13.42,1.18.83,2.36,1.24,3.54-7.54-.09-11.38-.06-11.53-.07l-2.28-.23a16.46,16.46,0,0,1-1.19-3.4C212.71,52,209.21,51.72,203,51.47Zm8.64-6.07c-1.1-4.18-1.84-7-2.18-8.57-.77,2-1.53,3.86-2.26,5.49l-1.26,2.82C207.79,45.22,209.69,45.3,211.59,45.4Z"/><path class="cls-2" d="M272.26,60.45q-5.49-.63-11-1.18.12-6.74.27-9.3c.06-.92.11-1.85.17-2.77q-4.4,5.28-8.67,10.61c-3-.33-4.74-.51-5.17-.58-1.9-4.85-3.33-8.59-4.26-11.22q-1.17,5.54-2.33,11.07c-1.2-.08-2.92-.21-5.16-.4s-4.5-.44-6.74-.73l.45-3c.34-1.91,1.32-9.27,3-22h.1c5.38.42,9.95.77,13.71,1,.17.47.35.94.53,1.41q2.43,5.46,4.8,10.92,4.16-5.52,8.43-11,6.71.73,13.39,1.61c-.08,1.24-.36,6.38-.89,15.41q-.22,4-.47,8C272.37,59,272.32,59.73,272.26,60.45Z"/><path class="cls-2" d="M285.6,59.35c-.61,1-1.22,2-1.82,3.07a13.38,13.38,0,0,1-1.8-.15c-.58-.08-3.56-.67-9-1.66,1.75-2.61,6.59-10.42,15-23.24.77.1,2.49.29,5.15.6s5,.63,7,1a15.62,15.62,0,0,1,4,1c0,.25,2.05,7.87,5.56,22.9l.84,3.67c-7.52-1-11.34-1.35-11.49-1.38l-2.26-.5a17.2,17.2,0,0,1-.8-3.5C295.27,60.94,291.8,60.3,285.6,59.35Zm9.29-5.06c-.63-4.27-1-7.19-1.21-8.76-1,1.93-1.95,3.66-2.87,5.2l-1.57,2.66C291.12,53.68,293,54,294.89,54.29Z"/><path class="cls-2" d="M337.49,71.92a30.31,30.31,0,0,1-5-.18q-2.61-.3-5.94-1a54.29,54.29,0,0,1-7.18-2.1,50.1,50.1,0,0,1-7.13-3.21q.12-.27,2.95-6.14c0-.08.07-.11.17-.09q3,1.4,4.65,2.1a50.33,50.33,0,0,0,9.41,3c1.86.4,2.86.29,3-.34a.69.69,0,0,0-.15-.67,2.75,2.75,0,0,0-.92-.5l-2.21-.83L326.84,61l-2.25-.89c-1-.38-1.7-.69-2.2-.93l-1.91-1a10.76,10.76,0,0,1-1.77-1.06l-1.4-1.14a4.77,4.77,0,0,1-1.15-1.3,11.22,11.22,0,0,1-.72-1.43,5.48,5.48,0,0,1-.27-3.25,6.92,6.92,0,0,1,5.88-5.83c3.31-.7,8-.44,14,.87a38.47,38.47,0,0,1,7.42,2.42,25.45,25.45,0,0,1,5.29,2.88c-1.23,2.26-2.28,4.08-3.14,5.44a52.12,52.12,0,0,0-5.88-2.52,50.21,50.21,0,0,0-7-2.13q-3.14-.66-3.33.3c-.08.37.13.7.62,1a34.57,34.57,0,0,0,3.65,1.55c1.94.75,3.23,1.26,3.9,1.53,4.94,2,7.92,4,9,6a6.1,6.1,0,0,1,.66,4.32,7.33,7.33,0,0,1-1.69,3.39,7.46,7.46,0,0,1-2.93,1.91A14.5,14.5,0,0,1,337.49,71.92Z"/><path class="cls-3" d="M96.17,12.46c-.25,1.17-.45,2.24-.59,3.23s-.3,1.8-.46,2.46c-.27,1-.61,1.44-1.05,1.48a1.37,1.37,0,0,1-.83-.26,25.37,25.37,0,0,1-3.51-4.78c-1.52-2.44-2.32-4-2.38-4.61,0-.28.05-.46.21-.55a1,1,0,0,1,.59-.06,2,2,0,0,1,1.21.61,5,5,0,0,1,.47.78l.73,1.4c.81,1.57,1.59,3,2.35,4.3a10.47,10.47,0,0,0,.81-2.14c.18-.69.37-1.38.55-2.07.48-1.81,1-2.76,1.47-2.83.37-.29,1.68,1,3.89,3.84q1.4,1.82,1.74,2.16.21,0,.39-1.44c.12-1,.23-1.76.33-2.41a14.14,14.14,0,0,1,.41-1.86q.63-2,1.65-2.1a.49.49,0,0,1,.48.19.8.8,0,0,1,.16.35,1.79,1.79,0,0,1,0,.21q-.22.81-.45,1.86c-.15.69-.32,1.4-.49,2.13s-.35,1.44-.52,2.15-.35,1.36-.52,1.93q-.63,1.89-1.14,2.07c-.25.14-.71-.13-1.36-.81-.29-.32-.61-.7-.94-1.14l-1.06-1.38C97.41,14,96.7,13.09,96.17,12.46Z"/><path class="cls-3" d="M111.88,16.1c1.38-.09,3.41-.86,6.11-2.28a.56.56,0,0,1,.43.15.58.58,0,0,1,.19.4,6.32,6.32,0,0,1-3.44,2.71,8.72,8.72,0,0,1-4.92.64,4,4,0,0,1-3.38-2.7,10.61,10.61,0,0,1-.14-1.19,7.18,7.18,0,0,1,.25-2,6.5,6.5,0,0,1,1.16-2.42,7,7,0,0,1,2.1-1.89,6.17,6.17,0,0,1,2.69-.82,6.54,6.54,0,0,1,3.14.74,4.45,4.45,0,0,1,1.34.92A1.83,1.83,0,0,1,118,9.48c0,.11,0,.22,0,.33a1.77,1.77,0,0,1-1.28,1.89,5.16,5.16,0,0,1-1.36.25l-3.4.08a4,4,0,0,0-2.54.91,2.1,2.1,0,0,0-.65,1.24A2.8,2.8,0,0,0,111.88,16.1Zm3.73-7.5a3.49,3.49,0,0,0-1.14-.47,3.16,3.16,0,0,0-1-.1,4.75,4.75,0,0,0-1.22.32,10.88,10.88,0,0,0-1.48.66c-1,.57-1.56,1.13-1.52,1.68,1.27,0,2.22,0,2.85,0a9.43,9.43,0,0,0,3.51-.67c.37-.18.55-.39.53-.62A1,1,0,0,0,115.61,8.6Z"/><path class="cls-3" d="M120.08,8.11c-.08-.84-.15-1.59-.22-2.25s-.12-1.15-.15-1.47a19.13,19.13,0,0,0-.53-2.33l.38-.56a.74.74,0,0,1,.57-.3q.84,0,1.68,6.83c.31,2.66.54,5.33.69,8q.06,1.08-1.44,1.17l-.19,0c0-.81-.13-1.84-.25-3.1s-.22-2.36-.3-3.3S120.16,9,120.08,8.11Z"/><path class="cls-3" d="M133.35,14.05c.62-.28,1.23-.55,1.84-.79a5,5,0,0,1,1.74-.4c.55,0,.84.14.85.48a1.38,1.38,0,0,1,0,.36c0,.17-.24.37-.61.62a9.42,9.42,0,0,1-1.39.7c-.54.22-1.14.44-1.79.64s-1.29.38-1.91.53a16,16,0,0,1-2.75.53,9.28,9.28,0,0,1-1.78-.1,6.67,6.67,0,0,1-1.8-.51,3.14,3.14,0,0,1-2.06-2.8c0-.1,0-.28,0-.57a3.26,3.26,0,0,1,.28-1.22,6.3,6.3,0,0,1,1-1.63,10,10,0,0,1,1.58-1.52,10.43,10.43,0,0,1,4.08-2,6.07,6.07,0,0,1,1.26-.23l.85,0c.22,0,.45,0,.69,0a1.53,1.53,0,0,1,.62.15,1.2,1.2,0,0,1,.67,1.17c0,.37-.24.75-.76,1.13l-.37.28a3.86,3.86,0,0,0-.34-.9c-.14-.25-.42-.36-.85-.34a15.83,15.83,0,0,0-4.72,2c-1.47,1-2.17,1.94-2.12,2.92,0,.11,0,.23,0,.35a2.25,2.25,0,0,0,1.27,2.07,4.82,4.82,0,0,0,2.27.36,8.43,8.43,0,0,0,2.37-.43C132.08,14.6,132.72,14.34,133.35,14.05Z"/><path class="cls-3" d="M139.59,11.82a5.15,5.15,0,0,1,2.25-4.54,9.55,9.55,0,0,1,4.57-1.77l.66,0a4.48,4.48,0,0,1,1.41.27A4.14,4.14,0,0,1,151.2,8a3,3,0,0,1,.31,1.11,4.12,4.12,0,0,1,0,.65,5.48,5.48,0,0,1-2.12,4.67,8.45,8.45,0,0,1-5.12,1.7,4.93,4.93,0,0,1-3.4-.91A4.46,4.46,0,0,1,139.59,11.82Zm1.65.5a2.19,2.19,0,0,0,.84,1.94,3.84,3.84,0,0,0,2,.3,13,13,0,0,0,2.44-.28,5.76,5.76,0,0,0,1.86-.78A3.88,3.88,0,0,0,150,10a3.36,3.36,0,0,0-.82-2.28,2.76,2.76,0,0,0-2.2-.9l-1.85.41a5,5,0,0,0-1.74.78Q141.66,9.18,141.24,12.32Z"/><path class="cls-3" d="M154.63,15.45a4.72,4.72,0,0,1-1.27.43,1.08,1.08,0,0,1-.44-.06,1,1,0,0,1-.27-.33c0-.51,0-1.16,0-1.94s0-1.62,0-2.51,0-1.79,0-2.7a20.26,20.26,0,0,0-.2-2.48c0-.5.32-.76,1-.77.16,0,.29.27.39.84s.17,1,.22,1.3a5.21,5.21,0,0,0,.12.68,4.16,4.16,0,0,1,2.4-1.78,6,6,0,0,1,1.83-.34A5.37,5.37,0,0,1,160,6a2.47,2.47,0,0,1,1.12.71,2.07,2.07,0,0,1,.48,1.39A5.37,5.37,0,0,1,164.32,6a8.75,8.75,0,0,1,3.53-.9c1.5,0,2.24.55,2.22,1.67.17,2.91.35,5.81.53,8.72,0,.08-.23.13-.68.17-.88.06-1.32,0-1.32-.23s0-.63,0-.94c0-1.26.06-2.51.1-3.77a13.61,13.61,0,0,0-.55-4.19,7.17,7.17,0,0,0-2.4.52,5.86,5.86,0,0,0-1.47,1,5.2,5.2,0,0,0-1.12,1.55,12.58,12.58,0,0,0-1,5.73c-.09.33-.39.5-.91.51a1.88,1.88,0,0,1-.84-.16c-.22-.12-.31-.22-.27-.32a22,22,0,0,0,.39-3.87,9.42,9.42,0,0,0-.25-2.09c-.16-.67-.36-1.42-.59-2.28q-3.42.06-4.55,2.78a6.65,6.65,0,0,0-.53,2.25c0,.69,0,1.29,0,1.78S154.57,14.89,154.63,15.45Z"/><path class="cls-3" d="M176.19,14a17.78,17.78,0,0,0,6.25-1.84.54.54,0,0,1,.42.18.57.57,0,0,1,.16.41,6.32,6.32,0,0,1-3.62,2.46,8.75,8.75,0,0,1-5,.29,4,4,0,0,1-3.18-2.93c0-.3-.05-.69-.05-1.19a7,7,0,0,1,.38-2A6.62,6.62,0,0,1,172.93,7a7,7,0,0,1,2.23-1.73,6,6,0,0,1,2.74-.63,6.49,6.49,0,0,1,3.08,1,4.62,4.62,0,0,1,1.27,1,1.75,1.75,0,0,1,.46,1.16c0,.1,0,.21,0,.32a1.77,1.77,0,0,1-1.41,1.8,5.63,5.63,0,0,1-1.37.15l-3.41-.16a4,4,0,0,0-2.59.73,2.08,2.08,0,0,0-.73,1.19A2.77,2.77,0,0,0,176.19,14Zm4.25-7.22a3.55,3.55,0,0,0-1.1-.55,3.61,3.61,0,0,0-1-.17,5.31,5.31,0,0,0-1.24.24,10.48,10.48,0,0,0-1.51.55c-1.1.5-1.64,1-1.64,1.57,1.26.11,2.21.16,2.84.17a9.62,9.62,0,0,0,3.55-.43c.38-.16.57-.35.57-.58A1,1,0,0,0,180.44,6.76Z"/><path class="cls-3" d="M197.63,13.67l.14-3.75a5.9,5.9,0,0,0-.13-1.53L194,8.31c0-.54,0-1.08,0-1.62l3.56.08.15-6a1.1,1.1,0,0,1,.3-.42,1,1,0,0,1,.57-.31,1.14,1.14,0,0,1,.39.06.7.7,0,0,1,.35.33,21.2,21.2,0,0,1,.26,4.68,12.81,12.81,0,0,0,0,1.52,12.8,12.8,0,0,1,1.52,0l1.23,0a7.36,7.36,0,0,0,.83,0L203,8.24l-3.46-.19c0,2.69-.07,5.39-.1,8.08a1.77,1.77,0,0,1-.74.17C198,16.28,197.58,15.4,197.63,13.67Z"/><path class="cls-3" d="M204.48,11.67A5.16,5.16,0,0,1,207,7.3a9.51,9.51,0,0,1,4.69-1.44l.66,0a4.36,4.36,0,0,1,1.39.36,4.12,4.12,0,0,1,2.55,2.44,2.93,2.93,0,0,1,.23,1.12,5.28,5.28,0,0,1-.05.64A5.49,5.49,0,0,1,214.06,15a8.44,8.44,0,0,1-5.23,1.33,5,5,0,0,1-3.33-1.15A4.48,4.48,0,0,1,204.48,11.67Zm1.6.61a2.23,2.23,0,0,0,.71,2,4,4,0,0,0,2,.45,13.29,13.29,0,0,0,2.45-.12,5.59,5.59,0,0,0,1.92-.65A3.86,3.86,0,0,0,215,10.55a3.43,3.43,0,0,0-.66-2.33,2.75,2.75,0,0,0-2.14-1.05c-.62.08-1.24.18-1.87.28a5.08,5.08,0,0,0-1.79.65C207.35,8.82,206.52,10.22,206.08,12.28Z"/><path class="cls-3" d="M230.55,15.11c.09-1.25.19-2.5.28-3.74a6.11,6.11,0,0,0-.07-1.53l-3.67-.22c0-.54,0-1.08,0-1.62l3.55.21c.12-2,.25-4,.37-6a1.23,1.23,0,0,1,.31-.41.94.94,0,0,1,.58-.29,1.44,1.44,0,0,1,.4.07.8.8,0,0,1,.33.35,21,21,0,0,1,.09,4.68c0,.52,0,1,0,1.53a12.85,12.85,0,0,1,1.52,0l1.24.08a7.75,7.75,0,0,0,.83,0c-.06.56-.13,1.12-.19,1.68l-3.44-.32c-.13,2.69-.27,5.38-.4,8.08a2.06,2.06,0,0,1-.74.14C230.78,17.73,230.44,16.84,230.55,15.11Z"/><path class="cls-3" d="M247.61,18.25c-.16.25-.53.36-1.12.31s-.86-.28-.83-.7a36.34,36.34,0,0,0,.18-3.79c0-1.53-.26-2.36-.7-2.5a14.68,14.68,0,0,0-2.75-.54,2.51,2.51,0,0,0-1.82.51,4.27,4.27,0,0,0-1.21,2.05,24.36,24.36,0,0,0-.83,4.14l-1.8-.13c.09-.88.16-1.71.22-2.47s.09-1.68.14-2.73.08-2.21.11-3.46c0-1.44.07-2.65.13-3.64a18.63,18.63,0,0,1,.38-2.71.75.75,0,0,1,.72-.4,1,1,0,0,1,.83.45,1.32,1.32,0,0,1,.29.71l-.39,3.85a18.59,18.59,0,0,0,0,3.26,7.92,7.92,0,0,1,4.5-1.08,11.49,11.49,0,0,1,1.55.24,5.23,5.23,0,0,1,2.17,2.12,3.53,3.53,0,0,1,.23,1.17c0,.41,0,.87,0,1.39C247.53,16.08,247.54,17.4,247.61,18.25Z"/><path class="cls-3" d="M253.37,17.42a17.55,17.55,0,0,0,6.39-1.31.58.58,0,0,1,.41.22.53.53,0,0,1,.12.42,6.29,6.29,0,0,1-3.81,2.14,8.76,8.76,0,0,1-5-.13,4,4,0,0,1-2.92-3.18,11.37,11.37,0,0,1,0-1.2,6.78,6.78,0,0,1,.55-1.94,6.5,6.5,0,0,1,1.52-2.21,6.83,6.83,0,0,1,2.37-1.54,6.12,6.12,0,0,1,2.78-.4,6.54,6.54,0,0,1,3,1.22A4.44,4.44,0,0,1,260,10.63a1.75,1.75,0,0,1,.36,1.19c0,.11,0,.21,0,.32a1.77,1.77,0,0,1-1.56,1.67,5.6,5.6,0,0,1-1.38,0L254,13.4a4,4,0,0,0-2.65.5,2.15,2.15,0,0,0-.83,1.13A2.79,2.79,0,0,0,253.37,17.42Zm4.85-6.84a3.62,3.62,0,0,0-1.05-.64,4.08,4.08,0,0,0-.93-.25,5.43,5.43,0,0,0-1.25.14,9.61,9.61,0,0,0-1.57.42c-1.13.4-1.71.88-1.76,1.42,1.25.22,2.19.35,2.82.41a9.53,9.53,0,0,0,3.58-.13c.39-.12.59-.3.62-.53A1,1,0,0,0,258.22,10.58Z"/></g></g></svg>